<?xml version="1.0" encoding="iso-8859-1"?>
<!-- Uploaded to: SVG Repo, www.svgrepo.com, Generator: SVG Repo Mixer Tools -->
<!DOCTYPE svg PUBLIC "-//W3C//DTD SVG 1.1//EN" "http://www.w3.org/Graphics/SVG/1.1/DTD/svg11.dtd">
<svg fill="#000000" version="1.1" id="Capa_1" xmlns="http://www.w3.org/2000/svg" xmlns:xlink="http://www.w3.org/1999/xlink" 
	 width="800px" height="800px" viewBox="0 0 194.49 194.49"
	 xml:space="preserve">
<g>
	<g>
		<path d="M36.297,120.638l6.524,38.64l18.142-27.203h8.239c-6.275-18.55-10.994-33.706-14.26-45.684L36.297,120.638z"/>
		<path d="M139.539,86.39c-3.267,11.97-7.979,27.134-14.234,45.684h8.219l18.138,27.203l6.532-38.64L139.539,86.39z"/>
		<path d="M97.234,154.372c-7.296,0-13.19,5.903-13.19,13.185c0,7.27,13.19,26.934,13.19,26.934s13.19-19.652,13.19-26.934
			C110.425,160.287,104.51,154.372,97.234,154.372z"/>
		<path d="M97.24,48.25c-7.796,0-15.229,1.495-22.075,4.194c-0.126,28.042,7.46,61.049,11.281,85.045
			c-4.803-15.039-20.06-49.854-20.787-80.258c-3.156,1.956-6.141,4.17-8.893,6.65c2.382,17.058,15.072,55.499,25.627,85.659h29.721
			c10.568-30.172,23.248-68.615,25.624-85.667C126.976,54.202,112.793,48.25,97.24,48.25z"/>
		<path d="M84.044,13.341c-5.072,7.834-7.582,17.991-8.48,29.304c6.817-2.254,14.11-3.47,21.676-3.47
			c15.124,0,29.105,4.899,40.543,13.118C134.196,9.311,97.24,0,97.24,0S60.266,9.319,56.685,52.301
			c2.976-2.136,6.133-4.051,9.429-5.717C67.541,33.161,72.604,21.243,84.044,13.341z"/>
	</g>
</g>
</svg>